# Blender v2.79 (sub 0) OBJ File: 'GGJ Cells and Virus .blend'
# www.blender.org
mtllib Neutrophil.mtl
o Neutrophil_Sphere
v 0.000000 0.751335 -0.230444
v 0.000000 0.639123 -0.400940
v -0.000000 -0.000000 -0.689150
v 0.000000 -0.739334 -0.225446
v 0.000000 -0.802549 0.000000
v 0.116047 0.751335 -0.199570
v 0.206886 0.639123 -0.347224
v 0.259565 0.464350 -0.447956
v 0.333070 0.244123 -0.527467
v 0.377477 -0.000000 -0.596822
v 0.358982 -0.244123 -0.591325
v 0.323014 -0.464350 -0.531559
v 0.232175 -0.639123 -0.402139
v 0.110358 -0.739334 -0.195242
v 0.201000 0.751335 -0.115222
v 0.358337 0.639123 -0.200470
v 0.449579 0.464350 -0.258628
v 0.576895 0.244123 -0.304533
v 0.653810 -0.000000 -0.344575
v 0.621776 -0.244123 -0.341402
v 0.559476 -0.464350 -0.306895
v 0.402139 -0.639123 -0.232175
v 0.191146 -0.739334 -0.112723
v 0.232095 0.751335 0.000000
v 0.413772 0.639123 0.000000
v 0.519130 0.464350 0.000000
v 0.666141 0.244123 0.000000
v 0.754955 -0.000000 0.000000
v 0.717965 -0.244123 0.000000
v 0.646027 -0.464350 0.000000
v 0.464351 -0.639123 0.000000
v 0.220716 -0.739334 0.000000
v 0.201000 0.751335 0.115222
v 0.358337 0.639123 0.200470
v 0.449579 0.464350 0.258628
v 0.576895 0.244123 0.304534
v 0.653810 -0.000000 0.344575
v 0.621776 -0.244123 0.341402
v 0.559476 -0.464350 0.306896
v 0.402139 -0.639123 0.232176
v 0.191146 -0.739334 0.112723
v 0.116047 0.751335 0.199571
v 0.206886 0.639123 0.347225
v 0.259565 0.464350 0.447957
v 0.333070 0.244123 0.527467
v 0.377477 -0.000000 0.596822
v 0.358982 -0.244123 0.591326
v 0.323013 -0.464350 0.531559
v 0.232175 -0.639123 0.402140
v 0.110358 -0.739334 0.195242
v -0.000000 0.751335 0.230445
v 0.000000 0.639123 0.400941
v -0.000000 0.464350 0.517256
v -0.000000 0.244123 0.609067
v -0.000000 -0.000000 0.689151
v -0.000000 -0.244123 0.682804
v -0.000000 -0.464350 0.613792
v -0.000000 -0.639123 0.464351
v 0.000000 -0.739334 0.225446
v -0.000000 0.790000 0.000000
v -0.116047 0.751335 0.199571
v -0.206886 0.639123 0.347225
v -0.259565 0.464350 0.447957
v -0.333070 0.244123 0.527467
v -0.377478 -0.000000 0.596822
v -0.358982 -0.244123 0.591326
v -0.323014 -0.464350 0.531559
v -0.232175 -0.639123 0.402140
v -0.110358 -0.739334 0.195242
v -0.201000 0.751335 0.115222
v -0.358337 0.639123 0.200470
v -0.449579 0.464350 0.258628
v -0.576895 0.244123 0.304533
v -0.653810 -0.000000 0.344575
v -0.621776 -0.244123 0.341402
v -0.559476 -0.464350 0.306896
v -0.402139 -0.639123 0.232175
v -0.191146 -0.739334 0.112723
v -0.232095 0.751335 0.000000
v -0.413772 0.639123 0.000000
v -0.519130 0.464350 0.000000
v -0.666141 0.244123 0.000000
v -0.754955 -0.000000 0.000000
v -0.717965 -0.244123 0.000000
v -0.646027 -0.464350 0.000000
v -0.464350 -0.639123 0.000000
v -0.220716 -0.739334 0.000000
v -0.201000 0.751335 -0.115222
v -0.358337 0.639123 -0.200470
v -0.449579 0.464350 -0.258628
v -0.576895 0.244123 -0.304533
v -0.653810 -0.000000 -0.344575
v -0.621776 -0.244123 -0.341402
v -0.559476 -0.464350 -0.306895
v -0.402139 -0.639123 -0.232175
v -0.191146 -0.739334 -0.112723
v -0.116047 0.751335 -0.199570
v -0.206886 0.639123 -0.347224
v -0.259565 0.464350 -0.447956
v -0.333070 0.244123 -0.527467
v -0.377477 -0.000000 -0.596822
v -0.358982 -0.244123 -0.591325
v -0.323013 -0.464350 -0.531559
v -0.232175 -0.639123 -0.402139
v -0.110358 -0.739334 -0.195242
v 0.000000 0.464350 -0.517255
v 0.000000 0.244123 -0.609066
v 0.000000 -0.244123 -0.682803
v 0.000000 -0.464350 -0.613791
v 0.000000 -0.639123 -0.464350
vt 0.533325 0.351494
vt 0.528781 0.387511
vt 0.487066 0.383922
vt 0.485324 0.348037
vt 0.521577 0.163835
vt 0.530980 0.218613
vt 0.493347 0.219707
vt 0.493107 0.162019
vt 0.522580 0.423952
vt 0.511865 0.465813
vt 0.482163 0.465291
vt 0.485075 0.419031
vt 0.534356 0.252704
vt 0.535816 0.283758
vt 0.489002 0.283871
vt 0.490224 0.254072
vt 0.535748 0.316234
vt 0.486012 0.314263
vt 0.465974 0.160816
vt 0.441038 0.144926
vt 0.495487 0.056067
vt 0.477140 0.574141
vt 0.427350 0.476903
vt 0.454125 0.463456
vt 0.444666 0.384368
vt 0.440329 0.346198
vt 0.454054 0.215442
vt 0.446764 0.419309
vt 0.443935 0.281832
vt 0.447128 0.251773
vt 0.440172 0.312291
vt 0.410855 0.131086
vt 0.389414 0.102148
vt 0.372240 0.519061
vt 0.395763 0.489659
vt 0.398128 0.277328
vt 0.403614 0.245106
vt 0.395526 0.347014
vt 0.395731 0.310394
vt 0.409160 0.426625
vt 0.400010 0.390110
vt 0.414803 0.204596
vt 0.368052 0.442670
vt 0.350100 0.401492
vt 0.355055 0.230706
vt 0.371887 0.186658
vt 0.340488 0.626993
vt 0.344700 0.562922
vt 0.343690 0.308445
vt 0.345444 0.268692
vt 0.344225 0.352152
vt 0.365959 0.059646
vt 0.366372 0.000081
vt 0.290193 0.424261
vt 0.276639 0.364052
vt 0.323654 0.154377
vt 0.321777 0.473029
vt 0.277577 0.253043
vt 0.295005 0.204508
vt 0.273378 0.306034
vt 0.177429 0.388346
vt 0.163770 0.302296
vt 0.623443 0.059685
vt 0.598582 0.102007
vt 0.625408 0.002262
vt 0.268981 0.526286
vt 0.216514 0.465120
vt 0.214919 0.156017
vt 0.270866 0.100383
vt 0.588261 0.533284
vt 0.610683 0.579703
vt 0.607117 0.642179
vt 0.179939 0.223233
vt 0.098347 0.063348
vt 0.216982 0.000206
vt 0.000081 0.297327
vt 0.029430 0.169078
vt 0.113324 0.552251
vt 0.026188 0.437208
vt 0.219037 0.615243
vt 0.941899 0.482171
vt 0.845078 0.593766
vt 0.756397 0.495371
vt 0.798216 0.408979
vt 0.770912 0.000081
vt 0.719580 0.105259
vt 0.732258 0.649816
vt 0.691774 0.545880
vt 0.891607 0.068415
vt 0.973820 0.180312
vt 0.808687 0.242393
vt 0.776099 0.171327
vt 0.999919 0.332619
vt 0.813070 0.323290
vt 0.577285 0.134624
vt 0.548162 0.150202
vt 0.538479 0.481739
vt 0.568053 0.499005
vt 0.707995 0.379337
vt 0.714339 0.320372
vt 0.645996 0.488138
vt 0.683140 0.443597
vt 0.696344 0.216296
vt 0.663962 0.160794
vt 0.711376 0.266541
vt 0.647955 0.318977
vt 0.643136 0.277060
vt 0.623381 0.413672
vt 0.641950 0.365241
vt 0.615089 0.192297
vt 0.603625 0.455178
vt 0.634589 0.236953
vt 0.570193 0.209978
vt 0.561095 0.435223
vt 0.586214 0.282053
vt 0.581582 0.247719
vt 0.585150 0.357134
vt 0.589291 0.317673
vt 0.573122 0.396971
vn 0.0000 0.3522 -0.9359
vn 0.0000 0.4695 -0.8829
vn 0.4179 0.4851 -0.7682
vn 0.4450 0.3759 -0.8128
vn 0.0000 -0.9411 -0.3381
vn 0.0000 -0.7920 -0.6105
vn 0.2915 -0.7995 -0.5251
vn 0.1624 -0.9461 -0.2802
vn 0.0000 0.6923 -0.7215
vn 0.0000 0.9192 -0.3938
vn 0.1868 0.9242 -0.3331
vn 0.3598 0.6906 -0.6273
vn 0.0000 -0.4736 -0.8807
vn 0.0000 -0.1644 -0.9864
vn 0.4690 -0.1783 -0.8650
vn 0.4273 -0.4839 -0.7637
vn 0.0000 0.1377 -0.9904
vn 0.4756 0.1278 -0.8703
vn 0.2927 -0.9414 -0.1674
vn 0.3226 -0.9465 0.0000
vn 0.0000 -1.0000 0.0000
vn 0.0000 1.0000 0.0000
vn 0.3715 0.9284 0.0000
vn 0.3296 0.9236 -0.1959
vn 0.7297 0.5175 -0.4468
vn 0.7750 0.4192 -0.4728
vn 0.4977 -0.8143 -0.2986
vn 0.6285 0.6868 -0.3651
vn 0.8332 -0.2080 -0.5124
vn 0.7425 -0.5027 -0.4427
vn 0.8489 0.1082 -0.5173
vn 0.2927 -0.9414 0.1674
vn 0.1624 -0.9461 0.2802
vn 0.1868 0.9242 0.3331
vn 0.3296 0.9236 0.1959
vn 0.9746 -0.2239 0.0000
vn 0.8593 -0.5114 0.0000
vn 0.8985 0.4389 0.0000
vn 0.9951 0.0988 0.0000
vn 0.7287 0.6848 0.0000
vn 0.8454 0.5341 0.0000
vn 0.5700 -0.8216 0.0000
vn 0.6285 0.6868 0.3651
vn 0.7297 0.5175 0.4468
vn 0.7425 -0.5027 0.4427
vn 0.4977 -0.8143 0.2986
vn -0.1868 0.9242 0.3331
vn 0.0000 0.9192 0.3938
vn 0.8489 0.1082 0.5173
vn 0.8332 -0.2080 0.5124
vn 0.7750 0.4192 0.4728
vn 0.0000 -0.9411 0.3381
vn -0.1624 -0.9461 0.2802
vn 0.4179 0.4851 0.7682
vn 0.4450 0.3759 0.8128
vn 0.2915 -0.7995 0.5251
vn 0.3598 0.6906 0.6273
vn 0.4690 -0.1783 0.8650
vn 0.4273 -0.4839 0.7637
vn 0.4756 0.1278 0.8703
vn 0.0000 0.3522 0.9359
vn 0.0000 0.1377 0.9904
vn -0.2927 -0.9414 0.1674
vn -0.3226 -0.9465 0.0000
vn 0.0000 0.6923 0.7215
vn 0.0000 0.4695 0.8829
vn 0.0000 -0.4736 0.8807
vn 0.0000 -0.7920 0.6105
vn -0.3715 0.9284 0.0000
vn -0.3296 0.9236 0.1959
vn 0.0000 -0.1644 0.9864
vn -0.4273 -0.4839 0.7637
vn -0.2915 -0.7995 0.5251
vn -0.4756 0.1278 0.8703
vn -0.4690 -0.1783 0.8650
vn -0.4179 0.4851 0.7682
vn -0.4450 0.3759 0.8128
vn -0.3598 0.6906 0.6273
vn -0.7297 0.5175 0.4468
vn -0.7750 0.4192 0.4728
vn -0.4977 -0.8143 0.2986
vn -0.6285 0.6868 0.3651
vn -0.8332 -0.2080 0.5124
vn -0.7425 -0.5027 0.4427
vn -0.8489 0.1082 0.5173
vn -0.2927 -0.9414 -0.1674
vn -0.1624 -0.9461 -0.2802
vn -0.1868 0.9242 -0.3331
vn -0.3296 0.9236 -0.1959
vn -0.8985 0.4389 0.0000
vn -0.9951 0.0988 0.0000
vn -0.7287 0.6848 0.0000
vn -0.8454 0.5341 0.0000
vn -0.8593 -0.5114 0.0000
vn -0.5700 -0.8216 0.0000
vn -0.9746 -0.2239 0.0000
vn -0.8489 0.1082 -0.5173
vn -0.8332 -0.2080 -0.5124
vn -0.7297 0.5175 -0.4468
vn -0.7750 0.4192 -0.4728
vn -0.4977 -0.8143 -0.2986
vn -0.6285 0.6868 -0.3651
vn -0.7425 -0.5027 -0.4427
vn -0.2915 -0.7995 -0.5251
vn -0.3598 0.6906 -0.6273
vn -0.4690 -0.1783 -0.8650
vn -0.4273 -0.4839 -0.7637
vn -0.4450 0.3759 -0.8128
vn -0.4756 0.1278 -0.8703
vn -0.4179 0.4851 -0.7682
usemtl None
s 1
f 107/1/1 106/2/2 8/3/3 9/4/4
f 4/5/5 110/6/6 13/7/7 14/8/8
f 2/9/9 1/10/10 6/11/11 7/12/12
f 109/13/13 108/14/14 11/15/15 12/16/16
f 3/17/17 107/1/1 9/4/4 10/18/18
f 23/19/19 32/20/20 5/21/21 14/8/8
f 106/2/2 2/9/9 7/12/12 8/3/3
f 110/6/6 109/13/13 12/16/16 13/7/7
f 60/22/22 24/23/23 15/24/24 6/11/11
f 108/14/14 3/17/17 10/18/18 11/15/15
f 9/4/4 8/3/3 17/25/25 18/26/26
f 14/8/8 13/7/7 22/27/27 23/19/19
f 7/12/12 6/11/11 15/24/24 16/28/28
f 12/16/16 11/15/15 20/29/29 21/30/30
f 10/18/18 9/4/4 18/26/26 19/31/31
f 41/32/32 50/33/33 5/21/21 32/20/20
f 8/3/3 7/12/12 16/28/28 17/25/25
f 13/7/7 12/16/16 21/30/30 22/27/27
f 60/22/22 42/34/34 33/35/35 24/23/23
f 11/15/15 10/18/18 19/31/31 20/29/29
f 21/30/30 20/29/29 29/36/36 30/37/37
f 19/31/31 18/26/26 27/38/38 28/39/39
f 17/25/25 16/28/28 25/40/40 26/41/41
f 22/27/27 21/30/30 30/37/37 31/42/42
f 20/29/29 19/31/31 28/39/39 29/36/36
f 18/26/26 17/25/25 26/41/41 27/38/38
f 23/19/19 22/27/27 31/42/42 32/20/20
f 16/28/28 15/24/24 24/23/23 25/40/40
f 26/41/41 25/40/40 34/43/43 35/44/44
f 31/42/42 30/37/37 39/45/45 40/46/46
f 60/22/22 61/47/47 51/48/48 42/34/34
f 29/36/36 28/39/39 37/49/49 38/50/50
f 27/38/38 26/41/41 35/44/44 36/51/51
f 32/20/20 31/42/42 40/46/46 41/32/32
f 25/40/40 24/23/23 33/35/35 34/43/43
f 30/37/37 29/36/36 38/50/50 39/45/45
f 28/39/39 27/38/38 36/51/51 37/49/49
f 59/52/52 69/53/53 5/21/21 50/33/33
f 36/51/51 35/44/44 44/54/54 45/55/55
f 41/32/32 40/46/46 49/56/56 50/33/33
f 34/43/43 33/35/35 42/34/34 43/57/57
f 39/45/45 38/50/50 47/58/58 48/59/59
f 37/49/49 36/51/51 45/55/55 46/60/60
f 35/44/44 34/43/43 43/57/57 44/54/54
f 40/46/46 39/45/45 48/59/59 49/56/56
f 38/50/50 37/49/49 46/60/60 47/58/58
f 46/60/60 45/55/55 54/61/61 55/62/62
f 78/63/63 87/64/64 5/21/21 69/65/53
f 44/54/54 43/57/57 52/66/65 53/67/66
f 49/56/56 48/59/59 57/68/67 58/69/68
f 60/22/22 79/70/69 70/71/70 61/72/47
f 47/58/58 46/60/60 55/62/62 56/73/71
f 45/55/55 44/54/54 53/67/66 54/61/61
f 50/33/33 49/56/56 58/69/68 59/52/52
f 43/57/57 42/34/34 51/48/48 52/66/65
f 48/59/59 47/58/58 56/73/71 57/68/67
f 58/69/68 57/68/67 67/74/72 68/75/73
f 56/73/71 55/62/62 65/76/74 66/77/75
f 54/61/61 53/67/66 63/78/76 64/79/77
f 59/52/52 58/69/68 68/75/73 69/53/53
f 52/66/65 51/48/48 61/47/47 62/80/78
f 57/68/67 56/73/71 66/77/75 67/74/72
f 55/62/62 54/61/61 64/79/77 65/76/74
f 53/67/66 52/66/65 62/80/78 63/78/76
f 64/81/77 63/82/76 72/83/79 73/84/80
f 69/65/53 68/85/73 77/86/81 78/63/63
f 62/87/78 61/72/47 70/71/70 71/88/82
f 67/89/72 66/90/75 75/91/83 76/92/84
f 65/93/74 64/81/77 73/84/80 74/94/85
f 96/95/86 105/96/87 5/21/21 87/64/64
f 63/82/76 62/87/78 71/88/82 72/83/79
f 68/85/73 67/89/72 76/92/84 77/86/81
f 60/22/22 97/97/88 88/98/89 79/70/69
f 66/90/75 65/93/74 74/94/85 75/91/83
f 74/94/85 73/84/80 82/99/90 83/100/91
f 72/83/79 71/88/82 80/101/92 81/102/93
f 77/86/81 76/92/84 85/103/94 86/104/95
f 75/91/83 74/94/85 83/100/91 84/105/96
f 73/84/80 72/83/79 81/102/93 82/99/90
f 78/63/63 77/86/81 86/104/95 87/64/64
f 71/88/82 70/71/70 79/70/69 80/101/92
f 76/92/84 75/91/83 84/105/96 85/103/94
f 84/105/96 83/100/91 92/106/97 93/107/98
f 82/99/90 81/102/93 90/108/99 91/109/100
f 87/64/64 86/104/95 95/110/101 96/95/86
f 80/101/92 79/70/69 88/98/89 89/111/102
f 85/103/94 84/105/96 93/107/98 94/112/103
f 83/100/91 82/99/90 91/109/100 92/106/97
f 81/102/93 80/101/92 89/111/102 90/108/99
f 86/104/95 85/103/94 94/112/103 95/110/101
f 96/95/86 95/110/101 104/113/104 105/96/87
f 89/111/102 88/98/89 97/97/88 98/114/105
f 94/112/103 93/107/98 102/115/106 103/116/107
f 92/106/97 91/109/100 100/117/108 101/118/109
f 90/108/99 89/111/102 98/114/105 99/119/110
f 95/110/101 94/112/103 103/116/107 104/113/104
f 93/107/98 92/106/97 101/118/109 102/115/106
f 91/109/100 90/108/99 99/119/110 100/117/108
f 101/118/109 100/117/108 107/1/1 3/17/17
f 99/119/110 98/114/105 2/9/9 106/2/2
f 104/113/104 103/116/107 109/13/13 110/6/6
f 102/115/106 101/118/109 3/17/17 108/14/14
f 100/117/108 99/119/110 106/2/2 107/1/1
f 105/96/87 104/113/104 110/6/6 4/5/5
f 98/114/105 97/97/88 1/10/10 2/9/9
f 103/116/107 102/115/106 108/14/14 109/13/13
f 97/97/88 60/22/22 6/11/11 1/10/10
f 5/21/21 105/96/87 4/5/5 14/8/8
